<svg xmlns="http://www.w3.org/2000/svg" viewBox="0 0 767.05 421.89"><defs><style>.cls-1{fill:#d79ffc;}.cls-2{fill:#f4cc25;}.cls-3{fill:#ffed45;}.cls-4{fill:#fcfaed;}</style></defs><g id="Layer_2" data-name="Layer 2"><g id="Layer_1-2" data-name="Layer 1"><path class="cls-1" d="M99.24,229.86c0-88.41,53.8-139.69,119-139.69,35.42,0,60.58,16.5,77,34.59L266.12,163.4C254,151.23,241,142.19,220.05,142.19c-37.57,0-64.26,32.22-64.26,85.65,0,54.78,22.72,86.61,68.67,86.61,9.77,0,19.9-2.79,25.84-7.93v-46H209.87V211.33h89.44V334.19c-16.83,18-46.48,32.28-80.54,32.28C151.54,366.47,99.24,319.62,99.24,229.86Z"/><path class="cls-1" d="M325,95.08h60.25V311H620.33c36.91,0,36.91,50.53,0,50.53H325Z"/><path class="cls-1" d="M405.33,95.08h48.4l14.47,93C471,209,474,230,476.72,251H478c4.07-21,8.25-42.22,12.44-62.95l22.46-93H553l22.46,93c4.19,20.23,8.37,41.72,12.55,62.95h1.29c2.75-21.23,5.65-42.47,8.4-62.95l14.47-93h45.11L620.15,294.13H560.78l-20.43-90.41c-3.31-15.38-6.1-31.33-8.36-46.2H530.7c-2.52,14.87-5.16,30.82-8.48,46.2l-19.78,90.41H444.13Z"/><path class="cls-2" d="M664.68,421.89l-1.27-.44c16.92-48.24,10.77-122.18-26-130.23l.69-2.06c36.78,8,84.76-37.22,101.68-85.45l1.27.44c-16.92,48.24-7.73,113.55,26,130.23l-.69,2.06C732.62,319.76,681.6,373.66,664.68,421.89Z"/><path class="cls-3" d="M671,402h0c14-39.9,7.75-97.8-21.41-108l.11-.4c29.17,10.23,69.84-30,83.83-69.91h0c-14,39.9-7.38,96.72,21.79,107l-.11.4C726,320.75,685,362.07,671,402Z"/><path class="cls-4" d="M685.8,359.65h0c15.42-44,3.93-50.94-11.4-56.32l.16-.52c15.31,5.37,29.68,4.26,44.09-36.86h0c-14.41,41.12-3.93,50.94,11.4,56.32l-.16.52C714.58,317.42,701.22,315.66,685.8,359.65Z"/><path class="cls-2" d="M135.84,366.32l-.07.58c-16.21-2.13-39.42,8.18-40.1,24.58L95,391.4c.68-16.4-16.17-32-32.37-34.12l.07-.58c16.21,2.13,36.52-8.56,40.1-24.58l.69.08C99.89,348.22,119.64,364.19,135.84,366.32Z"/><path class="cls-3" d="M129.18,365.74h0c-13.4-1.76-31.5,6.91-33.26,20.31h-.14c1.77-13.41-13.11-26.43-26.52-28.19h0c13.41,1.76,31.15-7,32.91-20.36h.13C100.54,350.91,115.78,364,129.18,365.74Z"/><path class="cls-4" d="M115,363.87h0c-14.78-1.94-16.4,3.64-17.33,10.69l-.17,0c.93-7-.16-13-14-14.81h0c13.82,1.82,16.41-3.64,17.34-10.69l.17,0C100.06,356.09,100.18,361.93,115,363.87Z"/><path class="cls-2" d="M83.65,185.48l-1.48.12C78.77,144.51,41,92.81.18,99.9L0,98.16c40.79-7.09,70.2-56.95,66.8-98L68.28,0c3.4,41.09,40.6,85.43,82,85.7l.18,1.74C109.06,87.17,80.25,144.39,83.65,185.48Z"/><path class="cls-3" d="M81.52,168.76h0c-2.82-34-33.86-74-67.85-71.16l-.05-.32c34-2.82,58.13-46.45,55.31-80.44h0c2.82,34,33.78,73.05,67.77,70.24l.05.32C102.77,90.22,78.7,134.77,81.52,168.76Z"/><path class="cls-4" d="M78.53,132.7h0c-3.1-37.47-17.74-38.48-35.61-37l-.05-.44c17.84-1.48,31.95-7.35,29.05-42.36h0c2.9,35,17.74,38.48,35.61,37l0,.44C89.74,91.82,75.43,95.23,78.53,132.7Z"/></g></g></svg>